<svg xmlns="http://www.w3.org/2000/svg" xmlns:xlink="http://www.w3.org/1999/xlink" id="Layer_1" x="0px" y="0px" viewBox="0 0 302.7 115.1" style="enable-background:new 0 0 302.7 115.1;" xml:space="preserve"><style type="text/css">	.st0{fill:#FFFFFF;}	.st1{fill:#59C7DC;}</style><g transform="matrix( 1, 0, 0, 1, 0,0) ">	<g>		<g id="Layer0_0_FILL">			<path class="st0" d="M66.1,33.4c1.4-1.6,2.3-3.5,2.9-5.6c0.6-2.4,0.5-4.5-0.3-6.4c0.3,1.9,0,3.8-0.9,5.7    c-0.7,1.6-1.8,3.1-3.1,4.3c-2,1.8-4.8,3.3-8.6,4.6c-6.7,2.5-12.8,2.7-18.3,0.7c-0.9-0.3-2-0.7-3.1-1.3c-2.2-1-4.7-2.3-7.7-4.1    c2.2-4.3,4.8-8.1,8-11.4c2.1-2.1,4.4-4.1,6.9-5.8c6.2-4.2,11.6-6.5,16.3-6.8c5.6-0.4,8.9,2.3,9.7,8.1c-0.9-7.6-4-11.5-9.4-11.8    C53.5,3.4,46.8,6.2,38.3,12c-1.1,0.7-2.2,1.5-3.2,2.4c-4.7,3.9-8.7,8.9-11.8,14.8c-3.1-1.7-5.5-2.9-7.1-3.6    c-2.8-1-5.6-1.3-8.4-0.9C4.8,25,2.2,26.2,0,28c3.1-1.2,6.2-1.5,9.5-0.9c3,0.6,6,2,8.9,4c0.8,0.6,1.8,1.3,3,2.1    c-0.8,1.9-1.5,3.9-2.2,6c-1.2-0.6-2.1-1.1-2.9-1.4c-2.8-1-5.6-1.3-8.4-0.9c-3,0.4-5.6,1.5-7.8,3.4c3.1-1.2,6.2-1.5,9.5-0.8    c2.9,0.5,5.8,1.8,8.5,3.8c-0.6,2.3-1.1,4.6-1.5,7c-0.1,0-0.2-0.1-0.3-0.1c-2.8-1-5.6-1.3-8.4-0.9c-3,0.4-5.6,1.5-7.8,3.4    c3.1-1.2,6.2-1.5,9.5-0.8c2.2,0.4,4.3,1.2,6.4,2.4c-0.3,2.6-0.6,5.2-0.8,7.8c-2.4-0.7-4.8-0.8-7.3-0.5c-3,0.4-5.6,1.5-7.8,3.4    c3.1-1.2,6.2-1.5,9.5-0.9c1.8,0.4,3.6,1,5.3,1.9c-0.5,11.9,0.7,24.6,3.5,38c2.8,13.6,12,14.6,27.4,3c4.8-3.6,9.5-7.9,14.3-12.9    c0.5-0.5,0.9-1,1.4-1.5c4.6-5,6.9-8,7.1-9.1l-0.6,0.7c-0.5,0.5-0.9,0.9-1.3,1.2c-0.6,0.5-3.2,2.8-7.7,6.8c-0.3,0.3-0.7,0.7-1.1,1    c-5.2,4.7-9.5,8.4-13,11c-11.6,8.5-18.6,8.9-21.2,1.3c-0.3-1-0.8-2.6-1.3-4.8c-0.5-2.3-0.8-3.9-0.9-4.9c-1-10.1-1.6-19-1.6-26.7    c1.8,1.3,4.2,3,7.2,5.1c3.5,2.2,6.7,3.8,9.6,4.8c3.3,1.2,6.8,1.7,10.4,1.3c0.1,0,0.3,0,0.4,0c3.4-0.4,6.6-1.4,9.8-3.1    c3.7-1.8,6.7-4.1,8.9-6.8c1.4-1.6,2.3-3.5,2.9-5.6c0.6-2.4,0.5-4.5-0.3-6.5c0.3,1.9,0,3.8-0.9,5.7c-0.7,1.6-1.8,3-3.1,4.3    c-2,1.8-4.8,3.3-8.6,4.6c-5.6,2.1-10.8,2.6-15.6,1.5c-0.9-0.2-1.8-0.5-2.7-0.8c-2.7-0.9-6.3-2.6-10.8-5.3c-2.8-1.7-5.2-3-7.1-4    c0.1-2.5,0.2-4.9,0.4-7.1c1.8,1.2,4,2.8,6.8,4.8c2.5,1.6,4.8,2.9,7,3.8c0.9,0.4,1.7,0.7,2.5,1C39.9,68,43.4,68.4,47,68    c3.5-0.4,6.9-1.4,10.2-3.1c3.8-1.8,6.7-4.1,8.9-6.8c1.4-1.6,2.3-3.5,2.9-5.6c0.6-2.4,0.5-4.5-0.3-6.5c0.3,2,0,3.9-0.9,5.8    c-0.7,1.6-1.8,3-3.1,4.2c-1.9,1.8-4.8,3.3-8.6,4.7c-6.7,2.5-12.8,2.7-18.3,0.7c-1.1-0.3-2.3-0.8-3.6-1.5    c-2.1-0.9-4.5-2.2-7.2-3.9c-2.4-1.4-4.5-2.6-6.2-3.5c0-0.3,0.1-0.5,0.1-0.8c0.3-2,0.6-3.9,1-5.7c1.5,1,3.2,2.2,5.2,3.6    c2.6,1.7,5,3,7.3,4c0.8,0.4,1.6,0.7,2.3,0.9c3.3,1.2,6.8,1.6,10.4,1.2c3.5-0.4,6.9-1.4,10.2-3.2c3.8-1.8,6.7-4.1,8.9-6.8    c1.4-1.6,2.3-3.5,2.9-5.6c0.6-2.4,0.5-4.5-0.3-6.5c0.3,2,0,3.9-0.9,5.8c-0.7,1.6-1.8,3-3.1,4.3c-1.9,1.7-4.8,3.3-8.6,4.7    c-6.7,2.5-12.8,2.7-18.3,0.6c-1-0.3-2.1-0.8-3.3-1.3c-2.1-1-4.6-2.3-7.5-4c-1.4-0.8-2.7-1.6-3.9-2.3c0.6-1.9,1.2-3.8,1.9-5.5    c0.7,0.5,1.4,0.9,2.1,1.5c2.7,1.7,5.2,3.1,7.5,4c0.7,0.3,1.4,0.6,2,0.8c3.3,1.2,6.8,1.6,10.4,1.3c3.5-0.4,6.9-1.4,10.2-3.2    C61,38.4,63.9,36.1,66.1,33.4 M256.5,72.1c0.3,0.4,0.5,0.9,0.6,1.5h5c-0.2-2.4-1.1-4-2.6-5c-1.5-1-3.5-1.4-5.8-1.4    c-2.5,0-4.5,0.6-5.9,1.9c-1.4,1.3-2.1,2.8-2.1,4.5c0,1.5,0.4,2.7,1.3,3.5c0.9,0.8,2.4,1.5,4.6,2c3,0.7,4.8,1.2,5.3,1.5    s0.7,0.7,0.7,1.3c0,0.6-0.3,1-0.8,1.3c-0.6,0.3-1.4,0.5-2.4,0.5c-1.7,0-2.8-0.3-3.4-1c-0.3-0.4-0.6-1-0.7-1.9h-5    c0,2,0.7,3.6,2.1,4.8c1.4,1.3,3.7,1.9,6.7,1.9c3,0,5.1-0.6,6.5-1.8c1.4-1.2,2.1-2.8,2.1-4.7c0-1.4-0.5-2.6-1.5-3.6    c-1-1-2.5-1.7-4.5-2.2c-3-0.6-4.8-1.1-5.3-1.3c-0.5-0.3-0.7-0.7-0.7-1.3c0-0.5,0.2-0.9,0.7-1.2c0.4-0.3,1.2-0.5,2.3-0.5    C255,71.1,256,71.5,256.5,72.1 M283.7,69.2c-1.4,1.3-2.1,2.8-2.1,4.5c0,1.5,0.4,2.7,1.3,3.5c0.9,0.8,2.4,1.5,4.6,2    c3,0.7,4.8,1.2,5.3,1.5s0.7,0.7,0.7,1.3c0,0.6-0.3,1-0.8,1.3c-0.6,0.3-1.4,0.5-2.4,0.5c-1.7,0-2.8-0.3-3.4-1    c-0.3-0.4-0.6-1-0.7-1.9h-5c0,2,0.7,3.6,2.1,4.8c1.4,1.3,3.7,1.9,6.7,1.9c3,0,5.1-0.6,6.5-1.8c1.4-1.2,2.1-2.8,2.1-4.7    c0-1.4-0.5-2.6-1.5-3.6c-1-1-2.5-1.7-4.5-2.2c-3-0.6-4.8-1.1-5.3-1.3c-0.5-0.3-0.7-0.7-0.7-1.3c0-0.5,0.2-0.9,0.7-1.2    c0.4-0.3,1.2-0.5,2.3-0.5c1.3,0,2.3,0.3,2.8,1c0.3,0.4,0.5,0.9,0.6,1.5h5c-0.2-2.4-1.1-4-2.6-5c-1.5-1-3.5-1.4-5.8-1.4    C287.1,67.3,285.1,67.9,283.7,69.2 M277,71.6V68H274v-5.3h-5V68h-2.7v3.6h2.7v11.8c0,1.2,0.3,2,0.9,2.7c0.9,0.9,2.5,1.3,4.8,1.2    l2.3,0v-3.8c-0.2,0-0.3,0-0.5,0s-0.3,0-0.4,0c-1,0-1.7-0.1-1.9-0.3c-0.2-0.2-0.3-0.7-0.3-1.5V71.6H277 M250.5,38.7    c-1.6,2-2.3,4.3-2.3,7c0,2.7,0.8,5.1,2.3,7c1.6,1.9,3.9,2.9,7.2,2.9c3.2,0,5.6-1,7.1-2.9c1.6-2,2.4-4.3,2.4-7c0-2.7-0.8-5-2.4-7    c-1.6-2-3.9-3-7.1-3C254.4,35.7,252,36.7,250.5,38.7 M260.9,41.4c0.8,1,1.1,2.4,1.1,4.3c0,1.9-0.4,3.3-1.1,4.4    c-0.8,1-1.8,1.5-3.3,1.5c-1.4,0-2.5-0.5-3.3-1.5c-0.8-1-1.2-2.5-1.2-4.4c0-1.9,0.4-3.3,1.2-4.3s1.9-1.5,3.3-1.5    C259,39.9,260.1,40.4,260.9,41.4 M282.4,35.9c-0.2,0-0.4,0-0.4,0c-0.1,0-0.2,0-0.3,0c-1.5,0-2.7,0.4-3.5,1.1    c-0.6,0.5-1.2,1.3-2,2.5v-3.3h-4.7V55h4.9v-8.9c0-1.5,0.2-2.6,0.6-3.3c0.7-1.3,2-2,3.9-2c0.1,0,0.3,0,0.6,0c0.3,0,0.5,0,0.8,0    V35.9 M302.7,36.4h-5.2l-3.8,13.8l-4.1-13.8h-5.4l6.8,19.5c0,0.2-0.1,0.5-0.3,1.1c-0.3,0.6-0.5,1-0.8,1.2    c-0.3,0.2-0.7,0.3-1.1,0.4c-0.4,0.1-0.9,0.1-1.4,0l-0.6,0v3.9c0.5,0,0.9,0.1,1.2,0.1c0.3,0,0.6,0,1.1,0c2.1,0,3.6-0.4,4.3-1.3    c0.7-0.8,1.7-3,3-6.5L302.7,36.4 M233,102.2c0.4,0.2,0.7,0.6,0.7,1.3c0,0.5-0.3,0.9-0.8,1.1c-0.3,0.1-0.9,0.3-1.6,0.3l-1.3,0.2    c-1.5,0.2-2.7,0.5-3.4,1c-1.4,0.8-2.2,2.2-2.2,4c0,1.4,0.5,2.5,1.3,3.3c0.9,0.8,2,1.1,3.3,1.1c1.1,0,2-0.2,2.9-0.7    c0.7-0.4,1.3-0.9,1.9-1.5c0,0.3,0,0.6,0.1,0.9c0,0.3,0.1,0.5,0.3,0.8h4.2v-0.5c-0.2-0.1-0.4-0.3-0.6-0.5c-0.1-0.2-0.2-0.5-0.3-1    c0-0.7,0-1.3,0-1.8v-6.8c0-1.8-0.7-3-1.9-3.7c-1.3-0.6-2.7-1-4.3-1c-2.5,0-4.3,0.7-5.3,2c-0.7,0.8-1,1.9-1.1,3.2h3.8    c0.1-0.6,0.3-1,0.6-1.3c0.4-0.5,1.1-0.7,2-0.7C231.9,101.9,232.5,102,233,102.2 M228.2,109.7c0-0.7,0.3-1.3,0.9-1.6    c0.4-0.2,1-0.4,1.8-0.5l0.9-0.2c0.4-0.1,0.8-0.2,1.1-0.3c0.3-0.1,0.5-0.2,0.8-0.4v1.5c0,1.3-0.4,2.2-1.1,2.7    c-0.7,0.5-1.5,0.8-2.3,0.8c-0.6,0-1-0.1-1.4-0.5C228.4,110.9,228.2,110.4,228.2,109.7 M210.5,102.7c0.1,0,0.3,0,0.5,0    c0.2,0,0.4,0,0.6,0v-4c-0.2,0-0.3,0-0.3,0c-0.1,0-0.1,0-0.2,0c-1.2,0-2.1,0.3-2.8,0.9c-0.4,0.4-1,1-1.6,2v-2.6H203V114h3.9v-7.1    c0-1.2,0.2-2.1,0.5-2.7C207.8,103.2,208.9,102.7,210.5,102.7 M219.3,95.1h-3.8v4.1h-2.1v2.8h2.1v9.2c0,0.9,0.2,1.6,0.6,2    c0.7,0.7,2,1,3.8,1l1.8,0v-3c-0.1,0-0.3,0-0.4,0c-0.1,0-0.3,0-0.4,0c-0.8,0-1.3-0.1-1.4-0.2c-0.2-0.2-0.3-0.5-0.3-1.2V102h2.4    v-2.8h-2.4V95.1 M226.5,84.9c1.5-1.8,2.3-4.4,2.3-7.8c0-3.2-0.8-5.6-2.3-7.3s-3.5-2.5-5.7-2.5c-1.6,0-2.9,0.4-4,1.3    c-0.6,0.5-1.2,1.1-1.8,2v-2.8h-4.8v26.7h4.9v-10c0.5,0.8,1.1,1.4,1.7,1.8c1,0.8,2.3,1.2,3.8,1.2C223,87.6,225,86.7,226.5,84.9     M219.3,71.8c1.5,0,2.6,0.6,3.3,1.7c0.7,1.1,1,2.4,1,3.9c0,1.8-0.4,3.3-1.2,4.3c-0.7,1.1-1.8,1.6-3.2,1.6c-1,0-1.8-0.3-2.5-0.8    c-1.2-0.9-1.8-2.5-1.8-4.7c0-1.4,0.2-2.6,0.5-3.5C216.2,72.7,217.5,71.8,219.3,71.8 M239.5,67.9h-5.1V87h5.1V67.9 M190.1,110.8    c-1-0.6-1.5-1.7-1.6-3.2h10.8c0-1.3,0-2.3-0.1-3c-0.2-1.2-0.6-2.2-1.2-3.1c-0.7-1-1.5-1.7-2.5-2.2c-1.1-0.5-2.2-0.7-3.5-0.7    c-2.2,0-4,0.7-5.4,2c-1.4,1.4-2,3.4-2,6c0,2.8,0.8,4.8,2.3,6c1.5,1.2,3.3,1.8,5.3,1.8c2.4,0,4.3-0.7,5.6-2.1    c0.9-0.9,1.3-1.8,1.4-2.7h-3.9c-0.2,0.4-0.5,0.8-0.8,1c-0.6,0.5-1.3,0.7-2.2,0.7C191.4,111.4,190.7,111.2,190.1,110.8     M189.6,102.7c0.5-0.6,1.3-0.8,2.4-0.8c0.9,0,1.7,0.3,2.3,0.8c0.6,0.6,1,1.4,1,2.4h-6.8C188.8,104.1,189.1,103.3,189.6,102.7     M171.4,93.9h-3.9V114h3.8v-1.8c0.5,0.7,1,1.2,1.5,1.5c0.7,0.5,1.7,0.8,3,0.8c2,0,3.5-0.8,4.6-2.3c1.1-1.5,1.7-3.4,1.7-5.8    c0-2.2-0.6-4.1-1.7-5.5c-1.1-1.4-2.7-2.2-4.6-2.2c-1.1,0-2,0.2-2.7,0.7c-0.6,0.4-1.1,0.9-1.6,1.6V93.9 M172.1,109.9    c-0.6-0.9-0.9-1.9-0.9-3.2c0-1.1,0.2-2,0.5-2.6c0.5-1.3,1.5-2,2.9-2s2.4,0.7,2.9,2c0.3,0.7,0.5,1.6,0.5,2.6    c0,1.3-0.3,2.4-0.9,3.2c-0.6,0.8-1.3,1.3-2.3,1.3C173.6,111.2,172.7,110.8,172.1,109.9 M177.1,71.2v-3.3h-4.8V87h5.1v-9.1    c0-1.5,0.2-2.7,0.5-3.4c0.7-1.3,2-2,4-2c0.2,0,0.4,0,0.6,0c0.3,0,0.5,0,0.9,0.1v-5.2c-0.2,0-0.3,0-0.4,0c-0.1,0-0.2,0-0.3,0    c-1.5,0-2.7,0.4-3.6,1.2C178.6,69,177.9,69.9,177.1,71.2 M198.2,71.9c0.5,0.3,0.8,0.8,0.8,1.6c0,0.6-0.3,1.1-1,1.4    c-0.4,0.2-1.1,0.3-2,0.5l-1.8,0.2c-1.9,0.3-3.4,0.7-4.4,1.3c-1.8,1-2.8,2.7-2.8,5.1c0,1.8,0.6,3.2,1.7,4.2c1.1,1,2.6,1.5,4.3,1.5    c1.4,0,2.6-0.3,3.7-1c0.9-0.5,1.7-1.1,2.4-1.9c0,0.4,0.1,0.8,0.2,1.2s0.2,0.7,0.3,1.1h5.5v-0.8c-0.3-0.1-0.6-0.3-0.8-0.5    c-0.2-0.2-0.3-0.7-0.3-1.3c0-0.9,0-1.6,0-2.2v-8.8c0-2.3-0.8-3.9-2.5-4.7c-1.6-0.8-3.5-1.3-5.6-1.3c-3.2,0-5.5,0.8-6.8,2.5    c-0.8,1.1-1.3,2.5-1.4,4.2h4.9c0.1-0.7,0.3-1.3,0.7-1.8c0.5-0.6,1.3-0.9,2.5-0.9C196.8,71.4,197.6,71.5,198.2,71.9 M192,81.6    c0-1,0.4-1.7,1.2-2.2c0.5-0.3,1.3-0.5,2.3-0.7l1.1-0.2c0.6-0.1,1-0.2,1.4-0.3c0.3-0.1,0.7-0.3,1-0.5v1.9c0,1.7-0.5,2.8-1.5,3.4    c-0.9,0.6-1.9,1-3,1c-0.7,0-1.3-0.2-1.8-0.5C192.3,83,192,82.4,192,81.6 M172.7,36.4H168v26h4.8v-9.8c0.5,0.8,1,1.4,1.6,1.8    c1,0.8,2.2,1.2,3.7,1.2c2.3,0,4.2-0.9,5.8-2.6c1.5-1.7,2.2-4.2,2.2-7.5c0-3.1-0.8-5.5-2.3-7.1c-1.5-1.6-3.4-2.4-5.6-2.4    c-1.5,0-2.8,0.4-3.9,1.3c-0.6,0.5-1.2,1.1-1.7,1.9V36.4 M176.9,40.2c1.5,0,2.5,0.6,3.2,1.7c0.7,1.1,1,2.4,1,3.8    c0,1.7-0.4,3.1-1.1,4.2c-0.7,1.1-1.8,1.6-3.2,1.6c-0.9,0-1.7-0.3-2.4-0.8c-1.2-0.9-1.7-2.4-1.8-4.6c0-1.4,0.2-2.5,0.5-3.4    C173.9,41,175.1,40.2,176.9,40.2 M196,36.4h-5V55h5V36.4 M191,29.6v4.5h5v-4.5H191 M239.5,60.9h-5.1v4.6h5.1V60.9 M220.9,40.7    c0.5-0.6,1.3-0.8,2.5-0.8c1,0,1.8,0.2,2.3,0.5c0.5,0.3,0.8,0.8,0.8,1.5c0,0.6-0.3,1.1-1,1.4c-0.4,0.2-1.1,0.3-2,0.4l-1.6,0.2    c-1.9,0.3-3.4,0.7-4.4,1.2c-1.8,1-2.6,2.7-2.6,5c0,1.8,0.6,3.1,1.7,4.1c1.1,1,2.5,1.5,4.2,1.5c1.3,0,2.5-0.3,3.6-0.9    c0.9-0.5,1.7-1.2,2.3-1.9c0,0.4,0.1,0.8,0.1,1.1c0.1,0.3,0.2,0.7,0.4,1h5.3v-0.7c-0.3-0.2-0.6-0.4-0.8-0.6    c-0.2-0.2-0.3-0.6-0.3-1.3c0-0.8,0-1.5,0-2.2v-8.5c0-2.2-0.8-3.8-2.4-4.5c-1.6-0.8-3.4-1.2-5.5-1.2c-3.2,0-5.4,0.8-6.7,2.5    c-0.8,1-1.3,2.4-1.3,4h4.7C220.3,41.7,220.5,41.1,220.9,40.7 M223.1,46.9l1.1-0.2c0.6-0.1,1-0.2,1.3-0.3c0.3-0.1,0.6-0.3,0.9-0.5    v1.8c0,1.6-0.5,2.8-1.4,3.4c-0.9,0.6-1.9,1-3,1c-0.7,0-1.2-0.2-1.7-0.6c-0.5-0.4-0.7-1-0.7-1.8c0-0.9,0.4-1.6,1.1-2.1    C221.3,47.3,222.1,47.1,223.1,46.9 M212,35.9c-0.1,0-0.2,0-0.3,0c-1.5,0-2.7,0.4-3.5,1.1c-0.6,0.5-1.2,1.3-2,2.5v-3.3h-4.7V55h5    v-8.9c0-1.5,0.2-2.6,0.5-3.3c0.7-1.3,2-2,4-2c0.1,0,0.3,0,0.5,0c0.3,0,0.5,0,0.8,0v-5C212.2,35.9,212,35.9,212,35.9 M245.1,36.6    h-3v-5.2h-4.9v5.2h-2.6V40h2.6v11.5c0,1.1,0.3,2,0.9,2.6c0.8,0.9,2.4,1.3,4.7,1.2l2.3-0.1v-3.6c-0.2,0-0.3,0-0.5,0s-0.3,0-0.5,0    c-1,0-1.6-0.1-1.8-0.3c-0.2-0.2-0.3-0.7-0.3-1.5V40h3V36.6 M232.4,9h2.1v12h3.9V9h2.6V6.3h-2.6c0-0.6,0-1,0-1.3    c0-0.3,0.1-0.6,0.3-0.8c0.2-0.3,0.5-0.4,1-0.4c0.5,0,0.9,0,1.1,0V0.8c-0.3,0-0.6,0-0.8-0.1c-0.2,0-0.4,0-0.7,0    c-2.2,0-3.5,0.5-4.1,1.4c-0.6,0.6-0.8,1.7-0.8,3.3v0.9h-2.1V9 M222.9,5.6c-2.5,0-4.4,0.8-5.7,2.4c-1.3,1.6-1.9,3.4-1.9,5.6    s0.6,4,1.9,5.6c1.3,1.5,3.2,2.3,5.7,2.3c2.6,0,4.5-0.8,5.8-2.3c1.3-1.6,1.9-3.4,1.9-5.6s-0.6-4-1.9-5.6    C227.3,6.5,225.4,5.6,222.9,5.6 M222.9,8.9c1.1,0,2,0.4,2.6,1.2c0.6,0.8,0.9,2,0.9,3.5c0,1.5-0.3,2.6-0.9,3.4    c-0.6,0.8-1.5,1.3-2.6,1.3c-1.1,0-2-0.4-2.6-1.3c-0.6-0.8-0.9-1.9-0.9-3.4c0-1.5,0.3-2.7,0.9-3.5C220.8,9.3,221.7,8.9,222.9,8.9     M200.6,6.4c-1.1-0.5-2.2-0.7-3.5-0.7c-2.2,0-4,0.7-5.3,2c-1.4,1.4-2,3.4-2,6c0,2.8,0.8,4.8,2.3,5.9c1.5,1.2,3.3,1.9,5.3,1.9    c2.4,0,4.3-0.7,5.6-2.1c0.9-0.9,1.3-1.8,1.5-2.7h-4c-0.2,0.4-0.5,0.8-0.8,1c-0.6,0.5-1.3,0.7-2.2,0.7c-0.8,0-1.5-0.2-2.1-0.5    c-1-0.6-1.5-1.7-1.6-3.2h10.9c0-1.3,0-2.3-0.1-2.9c-0.2-1.2-0.6-2.2-1.2-3.1C202.5,7.6,201.7,6.9,200.6,6.4 M194.8,9.8    c0.5-0.6,1.3-0.9,2.3-0.9c0.9,0,1.7,0.3,2.3,0.8c0.6,0.6,1,1.4,1,2.4h-6.8C193.9,11.1,194.3,10.4,194.8,9.8 M180.6,6.1    c-0.6-0.2-1.2-0.4-2-0.4c-2,0-3.6,0.8-4.7,2.3c-1.1,1.5-1.7,3.4-1.7,5.6c0,2.3,0.6,4.1,1.8,5.5c1.1,1.3,2.6,2,4.5,2    c1.2,0,2.3-0.3,3-0.9c0.4-0.3,0.8-0.8,1.2-1.5v1c0,1.4-0.2,2.5-0.5,3c-0.5,0.9-1.4,1.4-2.8,1.4c-1,0-1.7-0.2-2.1-0.5    c-0.3-0.2-0.5-0.5-0.6-1h-4.3c0.1,1.5,0.8,2.6,2,3.4c1.2,0.7,2.8,1.1,4.7,1.1c3.2,0,5.3-0.8,6.4-2.5c0.7-1,1-2.4,1-4.4V6.1h-3.8    v2.1C182.3,7.2,181.5,6.5,180.6,6.1 M179.6,9.2c1,0,1.8,0.4,2.4,1.1c0.6,0.7,0.9,1.8,0.9,3.3c0,1.5-0.3,2.6-1,3.3    c-0.6,0.7-1.4,1-2.3,1c-1.3,0-2.3-0.6-2.8-1.9c-0.3-0.7-0.5-1.4-0.5-2.3c0-1,0.1-1.9,0.4-2.5C177.3,9.8,178.2,9.2,179.6,9.2     M148.3,93.9h-4.8l-7.2,20.1h4.4l1.3-4.1h7.5l1.4,4.1h4.5L148.3,93.9 M146,98.4l2.5,8h-5.2L146,98.4 M162.8,93.9h-3.9V114h3.9    V93.9 M162.1,68.2c-1.3-0.6-2.8-0.9-4.5-0.9c-2.8,0-5.1,0.9-6.8,2.6c-1.7,1.8-2.6,4.3-2.6,7.7c0,3.5,1,6.1,2.9,7.7    c2,1.6,4.2,2.3,6.8,2.3c3.1,0,5.5-0.9,7.2-2.8c1.1-1.2,1.7-2.3,1.8-3.5h-5.1c-0.3,0.6-0.6,1-1,1.3c-0.7,0.6-1.6,0.9-2.8,0.9    c-1.1,0-2-0.3-2.8-0.8c-1.3-0.8-2-2.1-2-4h14c0-1.7-0.1-2.9-0.2-3.8c-0.2-1.5-0.7-2.9-1.5-4C164.6,69.8,163.5,68.8,162.1,68.2     M157.6,71.4c1.2,0,2.2,0.3,3,1s1.3,1.7,1.4,3h-8.7c0.2-1.2,0.7-2.2,1.4-2.9S156.4,71.4,157.6,71.4 M123.9,98    c0-0.3,0.1-0.6,0.3-0.8c0.2-0.3,0.5-0.4,1-0.3c0.5,0,0.9,0,1.1,0v-3.2c-0.3,0-0.6,0-0.8,0c-0.2,0-0.4,0-0.7,0    c-2.2,0-3.5,0.5-4,1.3c-0.6,0.6-0.8,1.7-0.8,3.3v0.9h-2.1v2.8h2.2v12h3.9v-12h2.6v-2.8h-2.6C123.9,98.7,123.9,98.3,123.9,98     M102.2,101c-1.3,1.6-1.9,3.4-1.9,5.6c0,2.2,0.6,4,1.9,5.6c1.3,1.5,3.2,2.3,5.7,2.3c2.6,0,4.5-0.8,5.8-2.3    c1.3-1.6,1.9-3.4,1.9-5.6c0-2.2-0.6-4-1.9-5.6c-1.3-1.6-3.2-2.4-5.8-2.4C105.4,98.6,103.5,99.4,102.2,101 M110.5,103.1    c0.6,0.8,0.9,2,0.9,3.5c0,1.5-0.3,2.6-0.9,3.4c-0.6,0.8-1.5,1.3-2.7,1.3s-2-0.4-2.6-1.3c-0.6-0.8-1-1.9-1-3.4    c0-1.5,0.3-2.7,1-3.5c0.6-0.8,1.5-1.2,2.6-1.2S109.9,102.3,110.5,103.1 M121,61.1h-21v4.6h7.8V87h5.5V65.7h7.8V61.1 M120.5,32.2    c-0.6-0.8-1.4-1.3-2.3-1.8c-0.9-0.4-2.3-0.6-4-0.6h-12V55h5.1v-9.9h5.1c1.5,0,2.5,0.3,3,0.8c0.5,0.5,0.8,1.6,0.8,3.2l0,2.3    c0,0.7,0.1,1.5,0.2,2.2c0.1,0.3,0.2,0.8,0.3,1.3h5.8v-0.6c-0.5-0.3-0.8-0.8-1-1.4c-0.1-0.4-0.2-1.2-0.2-2.3v-1.7    c0-1.8-0.2-3.1-0.7-4c-0.5-0.9-1.3-1.5-2.5-2c1.4-0.5,2.4-1.3,3-2.5c0.6-1.1,0.9-2.3,0.9-3.5c0-1-0.1-1.9-0.5-2.6    C121.5,33.6,121.1,32.9,120.5,32.2 M107.3,34.2h5.8c1.1,0,1.9,0.2,2.4,0.5c1,0.5,1.5,1.5,1.5,3c0,1.4-0.5,2.4-1.5,2.9    c-0.6,0.3-1.4,0.4-2.5,0.4h-5.7V34.2 M163.8,42.1c-0.2-2.3-1.1-3.9-2.5-4.8c-1.5-0.9-3.4-1.4-5.7-1.4c-2.4,0-4.3,0.6-5.7,1.8    c-1.4,1.2-2,2.7-2,4.5c0,1.4,0.4,2.5,1.3,3.3c0.9,0.8,2.4,1.4,4.5,2c2.9,0.7,4.6,1.2,5.1,1.5c0.5,0.3,0.7,0.7,0.7,1.3    c0,0.6-0.3,1-0.9,1.3c-0.5,0.3-1.3,0.4-2.3,0.4c-1.7,0-2.8-0.3-3.4-1c-0.3-0.4-0.5-1-0.6-1.8h-5c0,1.9,0.7,3.5,2.1,4.8    c1.4,1.2,3.6,1.8,6.5,1.8c2.9,0,5-0.6,6.4-1.8c1.4-1.2,2-2.7,2-4.5c0-1.4-0.5-2.6-1.5-3.5c-1-0.9-2.4-1.6-4.3-2    c-2.9-0.6-4.6-1.1-5.1-1.4c-0.5-0.3-0.7-0.7-0.7-1.2c0-0.5,0.2-0.9,0.7-1.2c0.4-0.3,1.2-0.5,2.3-0.5c1.3,0,2.2,0.3,2.8,1    c0.3,0.4,0.4,0.9,0.5,1.5H163.8 M130.8,61.2h-5V87h5V76.6c0-1.6,0.3-2.9,1-3.8c0.7-0.9,1.7-1.4,3-1.4c1.3,0,2.1,0.5,2.5,1.4    c0.4,0.6,0.6,1.5,0.6,2.5V87h5.1V75.7c0-1.7,0-3-0.2-3.7c-0.1-0.8-0.5-1.5-1-2.2c-0.6-0.9-1.4-1.5-2.3-1.9s-2-0.6-3.2-0.6    c-1.1,0-2.1,0.2-3,0.6c-1,0.4-1.8,1.2-2.5,2.3V61.2 M144.3,47.1c0-1.6-0.1-2.8-0.2-3.7c-0.2-1.5-0.7-2.8-1.5-3.9    c-0.9-1.3-1.9-2.2-3.3-2.8c-1.3-0.6-2.8-0.8-4.3-0.8c-2.7,0-5,0.9-6.7,2.5c-1.7,1.7-2.5,4.2-2.5,7.5c0,3.4,0.9,5.9,2.8,7.5    s4.1,2.3,6.5,2.3c3,0,5.3-0.9,7-2.8c1.1-1.1,1.7-2.3,1.8-3.3h-5c-0.3,0.5-0.6,1-1,1.3c-0.7,0.6-1.6,0.8-2.7,0.8    c-1.1,0-2-0.2-2.7-0.7c-1.2-0.8-1.8-2.1-2-3.9H144.3 M135,39.9c1.1,0,2.1,0.3,2.8,1c0.8,0.7,1.2,1.6,1.3,3h-8.3    c0.2-1.2,0.6-2.2,1.3-2.9C132.8,40.3,133.7,39.9,135,39.9 M162.6,5.8c-2.2,0-4,0.7-5.3,2c-1.4,1.4-2,3.4-2,6    c0,2.8,0.8,4.8,2.3,5.9c1.5,1.2,3.3,1.9,5.3,1.9c2.4,0,4.3-0.7,5.6-2.1c0.9-0.9,1.3-1.8,1.5-2.7h-4c-0.2,0.4-0.5,0.8-0.8,1    c-0.6,0.5-1.3,0.7-2.2,0.7c-0.8,0-1.5-0.2-2.1-0.5c-1-0.6-1.5-1.7-1.6-3.2H170c0-1.3,0-2.3-0.1-2.9c-0.2-1.2-0.6-2.2-1.2-3.1    c-0.7-1-1.5-1.7-2.6-2.2C165.1,6,163.9,5.8,162.6,5.8 M160.3,9.8c0.5-0.6,1.3-0.9,2.3-0.9c0.9,0,1.7,0.3,2.3,0.8    c0.6,0.6,1,1.4,1,2.4h-6.8C159.4,11.1,159.8,10.4,160.3,9.8 M152,0.9h-3.9V21h3.9V0.9 M143.6,0.9h-3.9V21h3.9V0.9 M134.3,8    c-1.3-1.6-3.2-2.4-5.8-2.4c-2.5,0-4.4,0.8-5.7,2.4c-1.3,1.6-1.9,3.4-1.9,5.6s0.6,4,1.9,5.6c1.3,1.5,3.2,2.3,5.7,2.3    c2.6,0,4.5-0.8,5.8-2.3c1.3-1.6,1.9-3.4,1.9-5.6S135.6,9.6,134.3,8 M128.6,8.9c1.1,0,2,0.4,2.7,1.2c0.6,0.8,0.9,2,0.9,3.5    c0,1.5-0.3,2.6-0.9,3.4c-0.6,0.8-1.5,1.3-2.7,1.3c-1.1,0-2-0.4-2.6-1.3c-0.6-0.8-1-1.9-1-3.4c0-1.5,0.3-2.7,1-3.5    C126.6,9.3,127.5,8.9,128.6,8.9 M103.5,3c-1.9,1.9-2.8,4.6-2.8,8.1c0,3.2,0.8,5.8,2.5,7.6c1.7,1.9,3.9,2.8,6.8,2.8    c2.3,0,4.2-0.7,5.7-2.1c1.5-1.4,2.4-3.1,2.8-5.4h-4.2c-0.3,1-0.6,1.8-1,2.3c-0.8,1-1.9,1.4-3.3,1.4c-1.4,0-2.5-0.5-3.5-1.6    c-0.9-1.1-1.4-2.8-1.4-5.1c0-2.3,0.4-4,1.3-5.3c0.9-1.2,2-1.8,3.5-1.8c1.5,0,2.6,0.4,3.3,1.3c0.4,0.5,0.8,1.2,1.1,2.2h4.2    c-0.1-1.3-0.5-2.5-1.4-3.8c-1.5-2.2-4-3.4-7.4-3.4C107.1,0.5,105.1,1.3,103.5,3z"></path>			<path class="st1" d="M95.3,0.6C95,0.2,94.6,0,94,0H37.2c-0.5,0-0.9,0.2-1.3,0.6C35.6,1,35.4,1.4,35.3,2l-0.3,12.4    c1-0.8,2.1-1.6,3.2-2.4c8.5-5.8,15.3-8.6,20.2-8.4c5.4,0.3,8.6,4.2,9.4,11.8c-0.8-5.8-4.1-8.5-9.7-8.1    c-4.7,0.3-10.1,2.6-16.3,6.8c-2.5,1.7-4.8,3.6-6.9,5.8l-0.3,15.5c1.1,0.5,2.2,1,3.1,1.3c5.6,2,11.7,1.8,18.3-0.7    c3.8-1.3,6.6-2.8,8.6-4.6c1.4-1.2,2.4-2.6,3.1-4.3c0.8-1.9,1.1-3.8,0.9-5.7c0.8,1.9,0.8,4.1,0.3,6.4c-0.5,2.1-1.5,4-2.9,5.6    c-2.2,2.7-5.2,5-8.9,6.8c-3.3,1.7-6.7,2.8-10.2,3.2c-3.6,0.4-7.1-0.1-10.4-1.3c-0.7-0.2-1.4-0.5-2-0.8l-0.1,6.3    c1.2,0.6,2.4,1,3.3,1.3c5.6,2.1,11.7,1.9,18.3-0.6c3.8-1.4,6.7-2.9,8.6-4.7c1.4-1.2,2.4-2.6,3.1-4.3c0.8-1.9,1.1-3.8,0.9-5.8    c0.8,2,0.8,4.1,0.3,6.5c-0.5,2.1-1.5,4-2.9,5.6c-2.2,2.7-5.1,4.9-8.9,6.8c-3.3,1.7-6.7,2.8-10.2,3.2c-3.6,0.4-7.1,0-10.4-1.2    c-0.7-0.2-1.5-0.5-2.3-0.9l-0.1,6.3c1.3,0.6,2.5,1.1,3.6,1.5c5.5,2,11.6,1.8,18.3-0.7c3.8-1.4,6.7-2.9,8.6-4.7    c1.4-1.2,2.4-2.6,3.1-4.2c0.8-1.9,1.1-3.8,0.9-5.8c0.8,1.9,0.8,4.1,0.3,6.5c-0.5,2.1-1.5,4-2.9,5.6c-2.2,2.7-5.1,5-8.9,6.8    c-3.3,1.7-6.7,2.8-10.2,3.1c-3.6,0.4-7.1,0-10.4-1.3c-0.8-0.3-1.7-0.6-2.5-1v0.5c0,0.4,0.1,0.8,0.4,1.2c1.6,2.3,3.6,4.7,6,7    c4.8,1.1,10.1,0.6,15.6-1.5c3.8-1.3,6.6-2.8,8.6-4.6c1.4-1.2,2.4-2.6,3.1-4.3c0.8-1.9,1.1-3.8,0.9-5.7c0.8,1.9,0.8,4.1,0.3,6.5    c-0.5,2.1-1.5,4-2.9,5.6c-2.2,2.7-5.2,5-8.9,6.8c-3.2,1.7-6.4,2.7-9.8,3.1c0.8,0.7,1.7,1.3,2.6,1.9c3.1,2.2,6.1,5.6,8.8,10.1    c4.5-4,7-6.3,7.7-6.8c0.4-0.3,0.9-0.7,1.3-1.2l0.6-0.7c-0.1,1.1-2.5,4.1-7.1,9.1c-0.5,0.5-0.9,1-1.4,1.5c0.7,1.3,1.4,2.7,2.1,4.2    c2.2,4.6,4,9.5,5.4,14.5c0.1,0.5,0.3,1,0.6,1.3c0.4,0.4,0.7,0.7,1.1,0.7c4.1,0,12.4,0,24.8,0c0.5,0,1-0.2,1.3-0.6    c0.4-0.4,0.5-0.9,0.5-1.5V2C95.9,1.5,95.7,1,95.3,0.6z"></path>		</g>	</g></g></svg>